<svg id="Capa_1" enable-background="new 0 0 512 512" height="512" viewBox="0 0 512 512" width="512" xmlns="http://www.w3.org/2000/svg"><g><path d="m64.52 491.187c0 11.495 9.318 20.813 20.813 20.813h341.333c11.495 0 20.813-9.318 20.813-20.813v-426.667h-382.959z" fill="#d8e2f1"/><path d="m424.585 64.52v426.667c0 11.495-9.318 20.813-20.813 20.813h22.894c11.495 0 20.813-9.318 20.813-20.813v-426.667z" fill="#b9cbea"/><path d="m426.667 0h-341.334c-11.494 0-20.813 9.318-20.813 20.813v43.707h382.96v-43.707c0-11.495-9.319-20.813-20.813-20.813z" fill="#5766cb"/><path d="m426.667 0h-22.894c11.495 0 20.813 9.318 20.813 20.813v43.707h22.894v-43.707c0-11.495-9.319-20.813-20.813-20.813z" fill="#3342aa"/><g><path d="m347.58 189.4c0 24.61-9.71 46.95-25.51 63.41h-132.14c-15.8-16.46-25.51-38.8-25.51-63.41 0-50.58 41-91.58 91.58-91.58s91.58 41 91.58 91.58z" fill="#dd5790"/><circle cx="256" cy="170.146" fill="#f1d0a5" r="39.024"/><path d="m273.379 135.206c2.609 5.235 4.084 11.133 4.084 17.379 0 21.553-17.472 39.024-39.024 39.024-6.246 0-12.145-1.475-17.379-4.084 6.393 12.828 19.634 21.645 34.94 21.645 21.553 0 39.024-17.472 39.024-39.024 0-15.306-8.817-28.547-21.645-34.94z" fill="#f1b986"/><path d="m256 209.171c-29.659 0-55.113 17.982-66.071 43.634 16.671 17.368 40.107 28.17 66.071 28.17s49.4-10.802 66.071-28.17c-10.958-25.652-36.412-43.634-66.071-43.634z" fill="#80e29d"/><path d="m322.071 252.805c-8.169-19.123-24.397-33.979-44.415-40.304 1.145 4.818 1.759 9.834 1.759 15.006 0 22.352-11.249 41.999-28.262 53.342 1.605.084 3.221.126 4.847.126 25.964.001 49.4-10.801 66.071-28.17z" fill="#78d090"/></g><g><g><path d="m393.366 322.003h-174.83c-4.268 0-7.726-3.459-7.726-7.726s3.459-7.726 7.726-7.726h174.83c4.268 0 7.726 3.459 7.726 7.726.001 4.267-3.458 7.726-7.726 7.726z" fill="#a2b9e2"/></g><path d="m181.073 306.55h-62.44c-4.268 0-7.726 3.459-7.726 7.726v33.301c0 4.267 3.459 7.726 7.726 7.726h62.44c4.268 0 7.726-3.459 7.726-7.726v-33.301c.001-4.266-3.458-7.726-7.726-7.726z" fill="#5766cb"/><g><path d="m330.927 355.304h-112.39c-4.268 0-7.726-3.459-7.726-7.726s3.459-7.726 7.726-7.726h112.39c4.268 0 7.726 3.459 7.726 7.726s-3.459 7.726-7.726 7.726z" fill="#a2b9e2"/></g><g><path d="m393.366 388.605h-174.83c-4.268 0-7.726-3.459-7.726-7.726s3.459-7.726 7.726-7.726h174.83c4.268 0 7.726 3.459 7.726 7.726.001 4.266-3.458 7.726-7.726 7.726z" fill="#a2b9e2"/></g><path d="m181.073 373.152h-62.44c-4.268 0-7.726 3.459-7.726 7.726v33.301c0 4.267 3.459 7.726 7.726 7.726h62.44c4.268 0 7.726-3.459 7.726-7.726v-33.301c.001-4.267-3.458-7.726-7.726-7.726z" fill="#ffe07d"/><g><path d="m330.927 421.905h-112.39c-4.268 0-7.726-3.459-7.726-7.726s3.459-7.726 7.726-7.726h112.39c4.268 0 7.726 3.459 7.726 7.726s-3.459 7.726-7.726 7.726z" fill="#a2b9e2"/></g><g><path d="m393.366 455.206h-174.83c-4.268 0-7.726-3.459-7.726-7.726s3.459-7.726 7.726-7.726h174.83c4.268 0 7.726 3.459 7.726 7.726.001 4.267-3.458 7.726-7.726 7.726z" fill="#a2b9e2"/></g><path d="m181.073 439.754h-62.44c-4.268 0-7.726 3.459-7.726 7.726v33.301c0 4.267 3.459 7.726 7.726 7.726h62.44c4.268 0 7.726-3.459 7.726-7.726v-33.301c.001-4.267-3.458-7.726-7.726-7.726z" fill="#dd5790"/><g><path d="m330.927 488.507h-112.39c-4.268 0-7.726-3.459-7.726-7.726s3.459-7.726 7.726-7.726h112.39c4.268 0 7.726 3.459 7.726 7.726s-3.459 7.726-7.726 7.726z" fill="#a2b9e2"/></g></g><circle cx="401.691" cy="32.26" fill="#dd5790" r="8.325"/><circle cx="368.39" cy="32.26" fill="#ffe07d" r="8.325"/><circle cx="335.089" cy="32.26" fill="#80e29d" r="8.325"/></g></svg>